<svg xmlns="http://www.w3.org/2000/svg" xmlns:xlink="http://www.w3.org/1999/xlink" width="500" zoomAndPan="magnify" viewBox="0 0 375 374.999991" height="500" preserveAspectRatio="xMidYMid meet" version="1.0"><defs><g/><clipPath id="8491aba3c7"><path d="M 11.117188 15.097656 L 363.617188 15.097656 L 363.617188 367.597656 L 11.117188 367.597656 Z M 11.117188 15.097656 " clip-rule="nonzero"/></clipPath><clipPath id="30c830ad3c"><rect x="0" width="70" y="0" height="51"/></clipPath></defs><g clip-path="url(#8491aba3c7)"><path fill="#3e8ffa" d="M 363.609375 191.347656 C 363.609375 199.9375 333.679688 206.109375 332.371094 214.355469 C 331.066406 222.820312 357.617188 237.875 354.984375 245.828125 C 352.347656 253.945312 322.019531 250.515625 318.1875 258.015625 C 314.355469 265.570312 334.898438 288.179688 329.921875 294.988281 C 324.945312 301.855469 297.121094 289.214844 291.128906 295.226562 C 285.136719 301.238281 297.777344 328.984375 290.894531 334.015625 C 284.082031 338.992188 261.472656 318.398438 253.917969 322.285156 C 246.417969 326.117188 249.851562 356.445312 241.730469 359.078125 C 233.777344 361.65625 218.722656 335.105469 210.257812 336.46875 C 202.140625 337.667969 195.949219 367.597656 187.378906 367.597656 C 178.804688 367.597656 172.613281 337.667969 164.367188 336.359375 C 155.90625 335.050781 140.847656 361.601562 132.894531 358.96875 C 124.777344 356.335938 128.210938 326.007812 120.710938 322.175781 C 113.152344 318.34375 90.542969 338.882812 83.734375 333.90625 C 76.867188 328.933594 89.507812 301.109375 83.496094 295.117188 C 77.539062 289.160156 49.738281 301.761719 44.707031 294.878906 C 39.730469 288.070312 60.324219 265.460938 56.4375 257.90625 C 52.605469 250.40625 22.277344 253.835938 19.644531 245.71875 C 17.066406 237.765625 43.617188 222.710938 42.253906 214.246094 C 41.054688 206.128906 11.128906 199.9375 11.128906 191.363281 C 11.128906 182.792969 41.054688 176.597656 42.363281 168.355469 C 43.671875 159.890625 17.121094 144.835938 19.753906 136.882812 C 22.386719 128.765625 52.714844 132.195312 56.546875 124.695312 C 60.378906 117.140625 39.839844 94.53125 44.816406 87.722656 C 49.792969 80.855469 77.613281 93.496094 83.605469 87.484375 C 89.5625 81.527344 76.960938 53.722656 83.84375 48.695312 C 90.652344 43.71875 113.261719 64.3125 120.816406 60.425781 C 128.320312 56.59375 124.886719 26.265625 133.003906 23.632812 C 140.957031 21.054688 156.011719 47.605469 164.476562 46.242188 C 172.59375 45.023438 178.769531 15.097656 187.359375 15.097656 C 195.949219 15.097656 202.125 45.023438 210.367188 46.332031 C 218.832031 47.640625 233.886719 21.089844 241.839844 23.722656 C 249.960938 26.355469 246.527344 56.683594 254.027344 60.515625 C 261.582031 64.347656 284.191406 43.808594 291.003906 48.785156 C 297.867188 53.761719 285.226562 81.582031 291.238281 87.574219 C 297.195312 93.53125 325 80.929688 330.03125 87.8125 C 335.003906 94.621094 314.410156 117.230469 318.296875 124.785156 C 322.128906 132.289062 352.457031 128.855469 355.089844 136.972656 C 357.671875 144.925781 331.121094 159.984375 332.480469 168.445312 C 333.679688 176.5625 363.609375 182.757812 363.609375 191.328125 Z M 363.609375 191.347656 " fill-opacity="1" fill-rule="nonzero"/></g><path fill="#ffffff" d="M 170.179688 244.957031 L 122.160156 201.589844 C 115.296875 195.359375 114.261719 184.699219 120.21875 177.617188 C 126.519531 170.171875 137.617188 169.425781 144.828125 175.890625 L 169.78125 198.429688 L 229.582031 142.347656 C 236.449219 135.882812 247.324219 136.226562 253.789062 143.148438 C 260.257812 150.011719 259.910156 160.890625 252.992188 167.355469 L 170.195312 244.957031 Z M 170.179688 244.957031 " fill-opacity="1" fill-rule="nonzero"/><g transform="matrix(1, 0, 0, 1, 289, 12)"><g clip-path="url(#30c830ad3c)"><g fill="#ffffff" fill-opacity="1"><g transform="translate(0.589722, 31.840733)"><g><path d="M 10.15625 2.515625 C 7.300781 2.515625 5.09375 1.753906 3.53125 0.234375 C 1.976562 -1.285156 1.203125 -3.257812 1.203125 -5.6875 C 1.203125 -7.894531 1.75 -10.054688 2.84375 -12.171875 C 3.9375 -14.285156 5.320312 -16.226562 7 -18 C 8.363281 -19.445312 9.925781 -20.695312 11.6875 -21.75 C 13.445312 -22.8125 15.300781 -23.632812 17.25 -24.21875 C 19.195312 -24.8125 21.097656 -25.109375 22.953125 -25.109375 C 24.421875 -25.109375 25.742188 -24.910156 26.921875 -24.515625 C 28.109375 -24.117188 29.050781 -23.492188 29.75 -22.640625 C 30.445312 -21.796875 30.796875 -20.691406 30.796875 -19.328125 C 30.796875 -18.109375 30.503906 -16.976562 29.921875 -15.9375 C 29.347656 -14.894531 28.578125 -13.988281 27.609375 -13.21875 C 26.640625 -12.445312 25.578125 -11.835938 24.421875 -11.390625 C 23.265625 -10.953125 22.09375 -10.734375 20.90625 -10.734375 C 19.363281 -10.734375 18.0625 -11.085938 17 -11.796875 C 15.945312 -12.515625 15.421875 -13.410156 15.421875 -14.484375 C 15.421875 -15.878906 16.304688 -17.25 18.078125 -18.59375 C 18.390625 -18.820312 18.632812 -18.9375 18.8125 -18.9375 C 18.945312 -18.9375 19.015625 -18.882812 19.015625 -18.78125 C 19.015625 -18.519531 18.804688 -18.3125 18.390625 -18.15625 C 16.953125 -17 16.234375 -15.828125 16.234375 -14.640625 C 16.234375 -13.796875 16.617188 -13.082031 17.390625 -12.5 C 18.160156 -11.914062 19.125 -11.625 20.28125 -11.625 C 21.3125 -11.625 22.347656 -11.84375 23.390625 -12.28125 C 24.441406 -12.71875 25.40625 -13.3125 26.28125 -14.0625 C 27.15625 -14.8125 27.851562 -15.65625 28.375 -16.59375 C 28.90625 -17.53125 29.171875 -18.515625 29.171875 -19.546875 C 29.171875 -21.222656 28.601562 -22.445312 27.46875 -23.21875 C 26.332031 -23.988281 24.890625 -24.375 23.140625 -24.375 C 21.160156 -24.375 19.195312 -24 17.25 -23.25 C 15.300781 -22.507812 13.476562 -21.484375 11.78125 -20.171875 C 10.082031 -18.859375 8.5625 -17.351562 7.21875 -15.65625 C 4.539062 -12.28125 3.203125 -9.109375 3.203125 -6.140625 C 3.203125 -4.566406 3.5625 -3.234375 4.28125 -2.140625 C 5.007812 -1.046875 6.007812 -0.21875 7.28125 0.34375 C 8.5625 0.914062 10.023438 1.203125 11.671875 1.203125 C 14.117188 1.203125 16.488281 0.664062 18.78125 -0.40625 C 21.070312 -1.476562 23.03125 -2.914062 24.65625 -4.71875 C 25.09375 -5.175781 25.414062 -5.40625 25.625 -5.40625 C 25.769531 -5.40625 25.84375 -5.289062 25.84375 -5.0625 C 25.84375 -4.75 25.703125 -4.453125 25.421875 -4.171875 C 24.546875 -3.242188 23.503906 -2.378906 22.296875 -1.578125 C 21.085938 -0.785156 19.789062 -0.0820312 18.40625 0.53125 C 17.03125 1.15625 15.632812 1.640625 14.21875 1.984375 C 12.800781 2.335938 11.445312 2.515625 10.15625 2.515625 Z M 10.15625 2.515625 "/></g></g></g><g fill="#ffffff" fill-opacity="1"><g transform="translate(28.64165, 31.840733)"><g><path d="M 8.546875 -13.296875 C 8.097656 -13.296875 7.710938 -13.4375 7.390625 -13.71875 C 7.078125 -14 6.921875 -14.320312 6.921875 -14.6875 C 6.921875 -15.40625 7.410156 -15.765625 8.390625 -15.765625 C 8.742188 -15.765625 9.101562 -15.640625 9.46875 -15.390625 C 9.832031 -15.148438 10.015625 -14.847656 10.015625 -14.484375 C 10.015625 -14.179688 9.84375 -13.90625 9.5 -13.65625 C 9.164062 -13.414062 8.847656 -13.296875 8.546875 -13.296875 Z M 1.390625 0.421875 C 0.828125 0.421875 0.359375 0.234375 -0.015625 -0.140625 C -0.390625 -0.515625 -0.578125 -1.175781 -0.578125 -2.125 C -0.578125 -2.664062 -0.453125 -3.289062 -0.203125 -4 C 0.0351562 -4.707031 0.34375 -5.421875 0.71875 -6.140625 C 1.09375 -6.859375 1.457031 -7.503906 1.8125 -8.078125 C 3.257812 -10.421875 4.445312 -11.601562 5.375 -11.625 C 5.601562 -11.625 5.882812 -11.523438 6.21875 -11.328125 C 6.550781 -11.140625 6.71875 -10.929688 6.71875 -10.703125 C 6.71875 -10.703125 5.738281 -9.441406 3.78125 -6.921875 C 1.851562 -4.421875 0.890625 -2.640625 0.890625 -1.578125 C 0.890625 -0.753906 1.210938 -0.34375 1.859375 -0.34375 C 2.265625 -0.34375 2.796875 -0.515625 3.453125 -0.859375 C 4.109375 -1.210938 4.796875 -1.660156 5.515625 -2.203125 C 6.242188 -2.742188 6.9375 -3.320312 7.59375 -3.9375 C 8.25 -4.5625 8.785156 -5.128906 9.203125 -5.640625 C 9.453125 -5.972656 9.671875 -6.203125 9.859375 -6.328125 C 10.054688 -6.460938 10.179688 -6.53125 10.234375 -6.53125 C 10.335938 -6.53125 10.390625 -6.453125 10.390625 -6.296875 C 10.390625 -6.171875 10.238281 -5.914062 9.9375 -5.53125 C 9.644531 -5.144531 9.242188 -4.691406 8.734375 -4.171875 C 8.117188 -3.554688 7.4375 -2.882812 6.6875 -2.15625 C 5.9375 -1.4375 5.125 -0.828125 4.25 -0.328125 C 3.375 0.171875 2.421875 0.421875 1.390625 0.421875 Z M 1.390625 0.421875 "/></g></g></g><g fill="#ffffff" fill-opacity="1"><g transform="translate(37.374066, 31.840733)"><g><path d="M 2.390625 0.234375 C 1.566406 0.234375 0.914062 0.0351562 0.4375 -0.359375 C -0.03125 -0.765625 -0.265625 -1.484375 -0.265625 -2.515625 C -0.265625 -3.109375 -0.0859375 -3.859375 0.265625 -4.765625 C 0.628906 -5.679688 1.082031 -6.664062 1.625 -7.71875 C 2.164062 -8.78125 2.707031 -9.828125 3.25 -10.859375 C 2.914062 -10.773438 2.617188 -10.734375 2.359375 -10.734375 C 1.585938 -10.734375 1.203125 -11.03125 1.203125 -11.625 C 1.203125 -11.914062 1.3125 -12.132812 1.53125 -12.28125 C 1.75 -12.4375 1.945312 -12.53125 2.125 -12.5625 C 2.125 -12.5625 2.15625 -12.5625 2.21875 -12.5625 C 2.28125 -12.5625 2.363281 -12.570312 2.46875 -12.59375 L 4.71875 -12.59375 C 5.175781 -13.1875 5.648438 -13.816406 6.140625 -14.484375 C 6.835938 -15.359375 7.394531 -15.875 7.8125 -16.03125 L 7.921875 -16.03125 C 8.097656 -16.03125 8.351562 -15.941406 8.6875 -15.765625 C 9.101562 -15.535156 9.3125 -15.300781 9.3125 -15.0625 C 9.3125 -14.726562 8.691406 -13.867188 7.453125 -12.484375 C 7.691406 -12.453125 8.03125 -12.4375 8.46875 -12.4375 C 8.90625 -12.4375 9.441406 -12.4375 10.078125 -12.4375 C 10.390625 -12.4375 10.832031 -12.4375 11.40625 -12.4375 C 11.988281 -12.4375 12.597656 -12.441406 13.234375 -12.453125 C 13.867188 -12.472656 14.414062 -12.488281 14.875 -12.5 C 15.34375 -12.507812 15.601562 -12.515625 15.65625 -12.515625 C 15.726562 -12.492188 15.765625 -12.457031 15.765625 -12.40625 C 15.765625 -12.175781 14.242188 -11.863281 11.203125 -11.46875 C 9.472656 -11.238281 8.148438 -11.054688 7.234375 -10.921875 C 6.328125 -10.796875 5.832031 -10.722656 5.75 -10.703125 C 5.394531 -10.390625 4.957031 -9.859375 4.4375 -9.109375 C 3.925781 -8.367188 3.410156 -7.535156 2.890625 -6.609375 C 2.378906 -5.679688 1.945312 -4.796875 1.59375 -3.953125 C 1.25 -3.117188 1.078125 -2.472656 1.078125 -2.015625 C 1.078125 -1.597656 1.234375 -1.253906 1.546875 -0.984375 C 1.859375 -0.710938 2.359375 -0.578125 3.046875 -0.578125 C 3.515625 -0.578125 4.070312 -0.679688 4.71875 -0.890625 C 5.363281 -1.097656 5.972656 -1.335938 6.546875 -1.609375 C 7.128906 -1.878906 7.550781 -2.085938 7.8125 -2.234375 C 8.476562 -2.648438 9.21875 -3.195312 10.03125 -3.875 C 10.84375 -4.5625 11.644531 -5.34375 12.4375 -6.21875 C 12.800781 -6.582031 13.046875 -6.765625 13.171875 -6.765625 C 13.253906 -6.765625 13.296875 -6.710938 13.296875 -6.609375 C 13.296875 -6.398438 13.101562 -6.066406 12.71875 -5.609375 C 12.09375 -4.859375 11.398438 -4.140625 10.640625 -3.453125 C 9.878906 -2.773438 9.035156 -2.148438 8.109375 -1.578125 C 7.054688 -0.941406 6.046875 -0.476562 5.078125 -0.1875 C 4.109375 0.09375 3.210938 0.234375 2.390625 0.234375 Z M 2.390625 0.234375 "/></g></g></g><g fill="#ffffff" fill-opacity="1"><g transform="translate(48.849842, 31.840733)"><g><path d="M 2.59375 0.1875 C 1.96875 0.1875 1.347656 -0.03125 0.734375 -0.46875 C 0.117188 -0.90625 -0.226562 -1.421875 -0.3125 -2.015625 C -0.570312 -3.992188 0.675781 -6.347656 3.4375 -9.078125 C 6.164062 -11.804688 8.625 -13.171875 10.8125 -13.171875 C 11.40625 -13.171875 11.867188 -13.03125 12.203125 -12.75 C 12.390625 -12.570312 12.523438 -12.328125 12.609375 -12.015625 C 12.703125 -11.703125 12.773438 -11.546875 12.828125 -11.546875 C 12.929688 -11.546875 13.019531 -11.566406 13.09375 -11.609375 C 13.175781 -11.648438 13.269531 -11.671875 13.375 -11.671875 C 13.675781 -11.671875 13.941406 -11.550781 14.171875 -11.3125 C 14.410156 -11.082031 14.539062 -10.878906 14.5625 -10.703125 C 14.59375 -10.648438 13.769531 -9.375 12.09375 -6.875 C 10.414062 -4.425781 9.65625 -2.765625 9.8125 -1.890625 C 9.945312 -1.296875 10.234375 -1 10.671875 -1 C 12.003906 -1 14.445312 -3.21875 18 -7.65625 C 18.082031 -7.757812 18.160156 -7.8125 18.234375 -7.8125 C 18.367188 -7.8125 18.4375 -7.71875 18.4375 -7.53125 C 18.4375 -7.320312 18.316406 -7.066406 18.078125 -6.765625 C 14.804688 -2.359375 12.296875 -0.15625 10.546875 -0.15625 C 10.316406 -0.15625 10.097656 -0.191406 9.890625 -0.265625 C 8.753906 -0.703125 8.1875 -1.554688 8.1875 -2.828125 C 8.1875 -3.265625 8.238281 -3.703125 8.34375 -4.140625 L 5.953125 -1.8125 C 5.234375 -1.09375 4.582031 -0.578125 4 -0.265625 C 3.414062 0.0351562 2.945312 0.1875 2.59375 0.1875 Z M 2.234375 -0.65625 C 3.734375 -0.65625 5.769531 -2.289062 8.34375 -5.5625 L 12.4375 -11.203125 C 12.238281 -11.566406 11.90625 -11.75 11.4375 -11.75 C 9.863281 -11.75 7.738281 -10.484375 5.0625 -7.953125 C 2.28125 -5.378906 1.03125 -3.253906 1.3125 -1.578125 C 1.4375 -0.960938 1.742188 -0.65625 2.234375 -0.65625 Z M 2.234375 -0.65625 "/></g></g></g></g></g></svg>